<svg width="28" height="28" viewBox="0 0 28 28" fill="none" xmlns="http://www.w3.org/2000/svg">
<mask id="mask0_5170_3767" style="mask-type:alpha" maskUnits="userSpaceOnUse" x="-1" y="0" width="29" height="28">
<g clip-path="url(#clip0_5170_3767)">
<path d="M24.4365 14.8889C25.1178 14.8889 25.6685 15.4267 25.6615 16.0905C25.6486 17.3972 25.6183 18.2115 25.5518 19.0095C25.4328 20.4352 25.189 21.6252 24.643 22.6134C24.4041 23.0479 24.1022 23.4446 23.747 23.7905C22.7226 24.788 21.4206 25.2395 19.7686 25.4542C18.1563 25.6665 16.0178 25.6665 13.3811 25.6665C10.7421 25.6665 9.84263 25.6665 8.22913 25.4542C6.57829 25.2395 5.27513 24.788 4.25313 23.7905C3.34663 22.9062 2.87646 21.8072 2.62912 20.4422C2.38412 19.1017 2.33863 17.4357 2.33046 15.3649C2.3289 14.8375 2.32812 14.2799 2.32812 13.6919V13.6265C2.32812 11.0552 2.32813 9.64587 2.54513 8.07321C2.76679 6.46321 3.22996 5.19387 4.25313 4.19754C5.27513 3.20004 6.57829 2.74854 8.22913 2.53271C9.20679 2.40437 9.97329 2.35304 11.5366 2.33437C11.6956 2.33066 11.8537 2.35853 12.0019 2.41638C12.15 2.47423 12.2851 2.5609 12.3995 2.67137C12.5139 2.78184 12.6052 2.91392 12.6682 3.05994C12.7311 3.20597 12.7645 3.36303 12.7663 3.52204C12.7663 4.18237 12.2191 4.65721 11.5413 4.66071C9.69213 4.66071 9.08196 4.72021 8.47063 4.78087C7.85929 4.84037 6.85829 4.92087 6.20729 5.55554C5.55629 6.19021 5.18413 6.87154 4.98813 8.29721C4.78746 9.74621 4.78513 11.4017 4.78513 14.0512L5.18646 13.6557C5.68813 13.2275 6.33913 13.0024 7.00529 13.0234C7.66837 13.0435 8.30001 13.3106 8.77629 13.7724L12.4513 18.5499C12.837 18.921 13.3386 19.1483 13.872 19.1935C14.4054 19.2388 14.9381 19.0993 15.3808 18.7984L15.7215 18.565C16.3594 18.1282 17.1244 17.9157 17.8962 17.9609C18.6681 18.0061 19.403 18.3064 19.9856 18.8147C20.5631 19.321 22.4788 21.6532 22.4788 21.6532C22.8043 20.9859 22.998 20.1109 23.1018 18.8742C23.1648 18.1194 23.1928 17.3622 23.2045 16.0812C23.2112 15.76 23.3446 15.4545 23.5756 15.2311C23.8065 15.0078 24.1152 14.8848 24.4365 14.8889Z" fill="black"/>
<path fill-rule="evenodd" clip-rule="evenodd" d="M20.1349 13.3863C17.5309 13.3863 16.2266 13.3863 15.4181 12.5766C14.6096 11.767 14.6084 10.465 14.6084 7.85981C14.6084 5.25465 14.6084 3.95148 15.4181 3.14298C16.2277 2.33448 17.5297 2.33331 20.1349 2.33331C22.7401 2.33331 24.0432 2.33331 24.8517 3.14298C25.6614 3.95148 25.6614 5.25465 25.6614 7.85981C25.6614 10.465 25.6614 11.7681 24.8517 12.5766C24.0432 13.3863 22.7401 13.3863 20.1349 13.3863ZM21.0566 5.40398C21.0566 5.15954 20.9595 4.92511 20.7866 4.75226C20.6138 4.57942 20.3793 4.48231 20.1349 4.48231C19.8905 4.48231 19.656 4.57942 19.4832 4.75226C19.3103 4.92511 19.2132 5.15954 19.2132 5.40398V6.93815H17.6791C17.4346 6.93815 17.2002 7.03525 17.0273 7.2081C16.8545 7.38094 16.7574 7.61537 16.7574 7.85981C16.7574 8.10425 16.8545 8.33868 17.0273 8.51153C17.2002 8.68438 17.4346 8.78148 17.6791 8.78148H19.2144V10.3156C19.2229 10.5543 19.3237 10.7803 19.4955 10.9461C19.6673 11.1119 19.8967 11.2045 20.1355 11.2045C20.3742 11.2045 20.6037 11.1119 20.7755 10.9461C20.9473 10.7803 21.0481 10.5543 21.0566 10.3156V8.78031H22.5919C22.7156 8.78472 22.839 8.76415 22.9545 8.71985C23.0701 8.67554 23.1756 8.6084 23.2647 8.52244C23.3538 8.43647 23.4246 8.33344 23.473 8.2195C23.5214 8.10555 23.5464 7.98302 23.5464 7.85923C23.5464 7.73543 23.5214 7.61291 23.473 7.49896C23.4246 7.38502 23.3538 7.28199 23.2647 7.19602C23.1756 7.11006 23.0701 7.04292 22.9545 6.99861C22.839 6.95431 22.7156 6.93374 22.5919 6.93815H21.0566V5.40398Z" fill="black"/>
</g>
</mask>
<g mask="url(#mask0_5170_3767)">
<rect x="-0.00537109" width="28" height="28" fill="#5B43FF"/>
</g>
<defs>
<clipPath id="clip0_5170_3767">
<rect width="28" height="28" fill="white" transform="translate(-0.00537109)"/>
</clipPath>
</defs>
</svg>
