<svg width="17" height="17" viewBox="0 0 17 17" fill="none" xmlns="http://www.w3.org/2000/svg">
<path d="M8.74678 1.46973C7.37789 1.47067 6.03764 1.86182 4.88314 2.59733C3.72864 3.33284 2.80773 4.38222 2.22838 5.62246C1.64902 6.8627 1.43523 8.2424 1.61206 9.59981C1.78889 10.9572 2.34902 12.2361 3.22678 13.2865L1.73158 14.7009C1.64103 14.8012 1.58103 14.9253 1.55863 15.0585C1.53624 15.1917 1.55239 15.3286 1.60518 15.4529C1.71318 15.7009 1.97318 15.8705 2.24358 15.8697H8.74678C10.6563 15.8697 12.4877 15.1112 13.8379 13.7609C15.1882 12.4106 15.9468 10.5793 15.9468 8.66973C15.9468 6.76017 15.1882 4.92882 13.8379 3.57856C12.4877 2.2283 10.6563 1.46973 8.74678 1.46973Z" fill="#5C6C74"/>
</svg>
