<svg width="17" height="17" viewBox="0 0 17 17" fill="none" xmlns="http://www.w3.org/2000/svg">
<path d="M14.8965 4.44804C14.8978 4.99789 14.7908 5.54262 14.5814 6.05106C14.3721 6.55951 14.0646 7.02171 13.6765 7.41124C13.3245 7.76404 12.9941 8.10404 12.6629 8.44324C12.3149 8.80004 11.9669 9.15684 11.5965 9.52964C10.99 10.1484 10.2029 10.5587 9.3483 10.7015C8.49374 10.8442 7.61592 10.7121 6.84128 10.324L8.08928 9.06804C8.5112 9.1632 8.95017 9.15174 9.36654 9.03469C9.78291 8.91764 10.1636 8.6987 10.4741 8.39764C10.8413 8.02964 11.1901 7.67764 11.5309 7.32244C11.8725 6.96724 12.1989 6.63684 12.5549 6.28244C13.039 5.79583 13.3101 5.13686 13.3085 4.45044C13.3084 3.76419 13.0373 3.10575 12.5541 2.61844C12.3154 2.37847 12.0317 2.18796 11.7192 2.05782C11.4068 1.92768 11.0717 1.86047 10.7333 1.86004C10.3948 1.85997 10.0596 1.92704 9.74725 2.05736C9.43485 2.18767 9.15139 2.37865 8.91328 2.61924C8.55008 2.98244 8.21089 3.33124 7.87089 3.68004C7.53009 4.02884 7.19008 4.37204 6.82928 4.73604C6.80688 4.76004 6.79168 4.78724 6.76928 4.81044L6.79969 4.70164L4.52928 7.00084C4.46079 6.38261 4.53079 5.75688 4.7342 5.16907C4.93761 4.58126 5.26933 4.0461 5.70528 3.60244C6.06368 3.24244 6.39808 2.89844 6.73328 2.55444C7.06928 2.21044 7.42129 1.85044 7.78609 1.48244C8.17191 1.09411 8.63071 0.785911 9.1361 0.575574C9.64149 0.365237 10.1835 0.256913 10.7309 0.256836C11.2785 0.257017 11.8207 0.365541 12.3263 0.576159C12.8318 0.786776 13.2907 1.09533 13.6765 1.48404C14.0656 1.87294 14.3738 2.33514 14.5832 2.84389C14.7926 3.35265 14.8991 3.89787 14.8965 4.44804ZM11.1085 11.6008C11.0597 11.66 11.0173 11.7248 10.9629 11.78C10.6069 12.1376 10.2725 12.4808 9.93888 12.82C9.60608 13.1592 9.24928 13.5264 8.88288 13.8952C8.39326 14.3656 7.74064 14.6283 7.06169 14.6283C6.38273 14.6283 5.73011 14.3656 5.24048 13.8952C4.75761 13.4078 4.48672 12.7494 4.48672 12.0632C4.48672 11.3771 4.75761 10.7187 5.24048 10.2312C5.60048 9.86884 5.94049 9.52084 6.27888 9.17364C6.61729 8.82644 6.95888 8.47604 7.32128 8.11284C7.6275 7.80017 8.00971 7.57244 8.43044 7.45197C8.85117 7.3315 9.29599 7.32243 9.72128 7.42564L10.9421 6.18164C10.1681 5.79648 9.29206 5.66643 8.43961 5.81016C7.58715 5.95389 6.80215 6.364 6.19728 6.98164C5.83248 7.34964 5.48768 7.70164 5.14448 8.05364C4.80048 8.40564 4.47408 8.74164 4.11648 9.10164C3.33462 9.88961 2.89607 10.9548 2.89648 12.0648C2.89648 13.1768 3.33648 14.2424 4.11728 15.0288C4.50315 15.4177 4.96214 15.7264 5.46781 15.9372C5.97348 16.1479 6.51585 16.2566 7.06368 16.2568C7.61138 16.2565 8.1536 16.1478 8.65913 15.937C9.16466 15.7263 9.62351 15.4176 10.0093 15.0288C10.3797 14.656 10.7245 14.2992 11.0765 13.9408C11.4069 13.6032 11.7381 13.2632 12.0893 12.9104C12.478 12.522 12.7859 12.0605 12.9953 11.5524C13.2046 11.0444 13.3114 10.4999 13.3093 9.95044C13.3033 9.77489 13.2865 9.59989 13.2589 9.42644L11.1085 11.6008Z" fill="#5C6C74"/>
</svg>
