<svg width="21" height="20" viewBox="0 0 21 20" fill="none" xmlns="http://www.w3.org/2000/svg">
<path d="M17.375 1.25H3.625C3.12772 1.25 2.65081 1.44754 2.29917 1.79917C1.94754 2.15081 1.75 2.62772 1.75 3.125L1.75 16.875C1.75 17.3723 1.94754 17.8492 2.29917 18.2008C2.65081 18.5525 3.12772 18.75 3.625 18.75H8.98633V12.8004H6.52539V10H8.98633V7.86562C8.98633 5.43789 10.4316 4.09687 12.6453 4.09687C13.7055 4.09687 14.8141 4.28594 14.8141 4.28594V6.66875H13.5926C12.3891 6.66875 12.0137 7.41562 12.0137 8.18164V10H14.7004L14.2707 12.8004H12.0137V18.75H17.375C17.8723 18.75 18.3492 18.5525 18.7008 18.2008C19.0525 17.8492 19.25 17.3723 19.25 16.875V3.125C19.25 2.62772 19.0525 2.15081 18.7008 1.79917C18.3492 1.44754 17.8723 1.25 17.375 1.25Z" fill="white"/>
</svg>
