<svg width="105" height="24" viewBox="0 0 105 24" fill="none" xmlns="http://www.w3.org/2000/svg">
<path d="M12.1064 0.00683594C5.47867 0.00683594 0.106445 5.37906 0.106445 12.0068C0.106445 15.3202 1.44978 18.3202 3.62089 20.4924L1.33533 22.7779C0.882001 23.2313 1.20311 24.0068 1.84422 24.0068H12.1064C18.7342 24.0068 24.1064 18.6346 24.1064 12.0068C24.1064 5.37906 18.7342 0.00683594 12.1064 0.00683594Z" fill="#FF4500"/>
<path d="M18.9087 14.6953C20.4563 14.6953 21.7109 13.4407 21.7109 11.893C21.7109 10.3454 20.4563 9.09082 18.9087 9.09082C17.361 9.09082 16.1064 10.3454 16.1064 11.893C16.1064 13.4407 17.361 14.6953 18.9087 14.6953Z" fill="url(#paint0_radial_5203_1032)"/>
<path d="M5.30418 14.6953C6.8518 14.6953 8.1064 13.4407 8.1064 11.893C8.1064 10.3454 6.8518 9.09082 5.30418 9.09082C3.75655 9.09082 2.50195 10.3454 2.50195 11.893C2.50195 13.4407 3.75655 14.6953 5.30418 14.6953Z" fill="url(#paint1_radial_5203_1032)"/>
<path d="M12.1133 20.2998C16.5316 20.2998 20.1133 17.6135 20.1133 14.2998C20.1133 10.9861 16.5316 8.2998 12.1133 8.2998C7.695 8.2998 4.11328 10.9861 4.11328 14.2998C4.11328 17.6135 7.695 20.2998 12.1133 20.2998Z" fill="url(#paint2_radial_5203_1032)"/>
<path d="M9.74885 13.727C9.70219 14.7358 9.02774 15.1025 8.24219 15.1025C7.45663 15.1025 6.85774 14.5547 6.90441 13.5458C6.95107 12.537 7.62552 11.877 8.41107 11.877C9.19663 11.877 9.79552 12.7192 9.74885 13.7281V13.727Z" fill="url(#paint3_radial_5203_1032)"/>
<path d="M14.4786 13.727C14.5253 14.7358 15.1997 15.1025 15.9853 15.1025C16.7708 15.1025 17.3697 14.5547 17.3231 13.5458C17.2764 12.537 16.602 11.877 15.8164 11.877C15.0308 11.877 14.432 12.7192 14.4786 13.7281V13.727Z" fill="url(#paint4_radial_5203_1032)"/>
<path d="M8.95418 13.2754C9.126 13.2754 9.26529 13.1237 9.26529 12.9365C9.26529 12.7494 9.126 12.5977 8.95418 12.5977C8.78236 12.5977 8.64307 12.7494 8.64307 12.9365C8.64307 13.1237 8.78236 13.2754 8.95418 13.2754Z" fill="#FFC49C"/>
<path d="M16.3521 13.2754C16.5239 13.2754 16.6632 13.1237 16.6632 12.9365C16.6632 12.7494 16.5239 12.5977 16.3521 12.5977C16.1803 12.5977 16.041 12.7494 16.041 12.9365C16.041 13.1237 16.1803 13.2754 16.3521 13.2754Z" fill="#FFC49C"/>
<path d="M12.1131 15.8867C11.1398 15.8867 10.2064 15.9345 9.3442 16.0223C9.19643 16.0367 9.10309 16.1901 9.16087 16.3267C9.6442 17.4812 10.7842 18.2923 12.1131 18.2923C13.442 18.2923 14.5831 17.4812 15.0653 16.3267C15.1231 16.1901 15.0286 16.0367 14.882 16.0223C14.0186 15.9345 13.0864 15.8867 12.1131 15.8867Z" fill="url(#paint5_radial_5203_1032)"/>
<path d="M16.4943 7.48478C17.5909 7.48478 18.4799 6.59582 18.4799 5.49923C18.4799 4.40264 17.5909 3.51367 16.4943 3.51367C15.3978 3.51367 14.5088 4.40264 14.5088 5.49923C14.5088 6.59582 15.3978 7.48478 16.4943 7.48478Z" fill="url(#paint6_radial_5203_1032)"/>
<path d="M12.0843 8.55311C11.8465 8.55311 11.6543 8.45422 11.6543 8.30089C11.6543 6.522 13.1021 5.07422 14.881 5.07422C15.1187 5.07422 15.311 5.26644 15.311 5.50422C15.311 5.742 15.1187 5.93422 14.881 5.93422C13.5765 5.93422 12.5154 6.99533 12.5154 8.29977C12.5154 8.45311 12.3232 8.552 12.0854 8.552L12.0843 8.55311Z" fill="url(#paint7_radial_5203_1032)"/>
<path d="M7.08663 13.6347C7.12996 12.6836 7.76219 12.0614 8.49663 12.0614C9.19219 12.0614 9.72996 12.7714 9.74996 13.6536C9.76885 12.667 9.17996 11.877 8.41107 11.877C7.64219 11.877 6.95107 12.5492 6.90441 13.5658C6.85774 14.5825 7.45663 15.1025 8.24219 15.1025C8.26107 15.1025 8.28107 15.1025 8.29996 15.1025C7.58441 15.0847 7.04441 14.5703 7.08774 13.6358L7.08663 13.6347Z" fill="#842123"/>
<path d="M17.1398 13.6347C17.0965 12.6836 16.4643 12.0614 15.7298 12.0614C15.0343 12.0614 14.4965 12.7714 14.4765 13.6536C14.4576 12.667 15.0465 11.877 15.8154 11.877C16.601 11.877 17.2754 12.5492 17.3221 13.5658C17.3687 14.5825 16.7698 15.1025 15.9843 15.1025C15.9654 15.1025 15.9454 15.1025 15.9265 15.1025C16.6421 15.0847 17.1821 14.5703 17.1387 13.6358L17.1398 13.6347Z" fill="#842123"/>
<path d="M38.68 7.78755L36.9069 12.0041C36.684 11.8919 36.1525 11.7664 35.6505 11.7664C35.1485 11.7664 34.6451 11.8919 34.1564 12.1296C33.1923 12.6182 32.4807 13.5956 32.4807 15.0055V22.7269H28.0679V7.7034H32.3552V9.81166H32.4394C33.4448 8.47111 34.9802 7.48047 36.9778 7.48047C37.7041 7.48047 38.4025 7.62072 38.6815 7.78755H38.68Z" fill="#FF4500"/>
<path d="M37.8271 15.258C37.8271 10.916 40.802 7.48047 45.2562 7.48047C49.2912 7.48047 52.1819 10.4273 52.1819 14.5744C52.1819 15.3008 52.1125 15.9844 51.959 16.6413H41.8488C42.3094 18.2196 43.678 19.4479 45.7302 19.4479C46.8611 19.4479 48.4673 19.0434 49.3325 18.3731L50.7011 21.6684C49.4299 22.5335 47.49 22.9528 45.7863 22.9528C41.025 22.9528 37.8271 19.8805 37.8271 15.2595V15.258ZM41.7646 13.8761H48.1174C48.1174 11.9494 46.805 10.9293 45.1987 10.9293C43.3827 10.9293 42.1544 12.1015 41.7632 13.8761H41.7646Z" fill="#FF4500"/>
<path d="M90.0479 0.953125C91.5287 0.953125 92.7423 2.16818 92.7423 3.6475C92.7423 5.12682 91.5272 6.34187 90.0479 6.34187C88.5686 6.34187 87.3535 5.12682 87.3535 3.6475C87.3535 2.16818 88.5686 0.953125 90.0479 0.953125ZM92.2536 22.7281H87.8407V7.70309H92.2536V22.7281Z" fill="#FF4500"/>
<path d="M64.4262 1.22461L64.413 9.12762H64.3288C63.1138 7.96867 61.8013 7.49327 60.0842 7.49327C55.853 7.49327 53.0464 10.9007 53.0464 15.2147C53.0464 19.5286 55.6714 22.9509 59.944 22.9509C61.7319 22.9509 63.4208 22.3367 64.5104 20.94H64.6359V22.7279H68.8391V1.22461H64.4262ZM64.6359 19.1463H64.4897L63.505 18.1231C62.8642 18.7624 61.9873 19.1463 60.9627 19.1463C58.8013 19.1463 57.2895 17.4366 57.2895 15.2191C57.2895 13.0016 58.8013 11.292 60.9627 11.292C63.1241 11.292 64.6359 13.0016 64.6359 15.2191V19.1463Z" fill="#FF4500"/>
<path d="M81.2802 1.22461L81.267 9.12762H81.1828C79.9678 7.96867 78.6553 7.49327 76.9382 7.49327C72.707 7.49327 69.9004 10.9007 69.9004 15.2147C69.9004 19.5286 72.5254 22.9509 76.798 22.9509C78.5859 22.9509 80.2748 22.3367 81.3644 20.94H81.4899V22.7279H85.6931V1.22461H81.2802ZM81.4692 19.1463H81.3231L80.3383 18.1231C79.6976 18.7624 78.8206 19.1463 77.796 19.1463C75.6346 19.1463 74.1228 17.4366 74.1228 15.2191C74.1228 13.0016 75.6346 11.292 77.796 11.292C79.9574 11.292 81.4692 13.0016 81.4692 15.2191V19.1463Z" fill="#FF4500"/>
<path d="M100.812 7.70278H104.038V11.4587H100.812V22.7278H96.3996V11.4587H93.1885V7.70278H96.3996V3.61914H100.812V7.70278Z" fill="#FF4500"/>
<defs>
<radialGradient id="paint0_radial_5203_1032" cx="0" cy="0" r="1" gradientUnits="userSpaceOnUse" gradientTransform="translate(18.9676 10.2114) scale(5.66445 4.92807)">
<stop stop-color="#FEFFFF"/>
<stop offset="0.4" stop-color="#FEFFFF"/>
<stop offset="0.51" stop-color="#F9FCFC"/>
<stop offset="0.62" stop-color="#EDF3F5"/>
<stop offset="0.7" stop-color="#DEE9EC"/>
<stop offset="0.72" stop-color="#D8E4E8"/>
<stop offset="0.76" stop-color="#CCD8DF"/>
<stop offset="0.8" stop-color="#C8D5DD"/>
<stop offset="0.83" stop-color="#CCD6DE"/>
<stop offset="0.85" stop-color="#D8DBE2"/>
<stop offset="0.88" stop-color="#EDE3E9"/>
<stop offset="0.9" stop-color="#FFEBEF"/>
</radialGradient>
<radialGradient id="paint1_radial_5203_1032" cx="0" cy="0" r="1" gradientUnits="userSpaceOnUse" gradientTransform="translate(5.36306 1.34804) scale(5.66445 4.92807)">
<stop stop-color="#FEFFFF"/>
<stop offset="0.4" stop-color="#FEFFFF"/>
<stop offset="0.51" stop-color="#F9FCFC"/>
<stop offset="0.62" stop-color="#EDF3F5"/>
<stop offset="0.7" stop-color="#DEE9EC"/>
<stop offset="0.72" stop-color="#D8E4E8"/>
<stop offset="0.76" stop-color="#CCD8DF"/>
<stop offset="0.8" stop-color="#C8D5DD"/>
<stop offset="0.83" stop-color="#CCD6DE"/>
<stop offset="0.85" stop-color="#D8DBE2"/>
<stop offset="0.88" stop-color="#EDE3E9"/>
<stop offset="0.9" stop-color="#FFEBEF"/>
</radialGradient>
<radialGradient id="paint2_radial_5203_1032" cx="0" cy="0" r="1" gradientUnits="userSpaceOnUse" gradientTransform="translate(12.2855 9.50347) scale(17.0867 11.9607)">
<stop stop-color="#FEFFFF"/>
<stop offset="0.4" stop-color="#FEFFFF"/>
<stop offset="0.51" stop-color="#F9FCFC"/>
<stop offset="0.62" stop-color="#EDF3F5"/>
<stop offset="0.7" stop-color="#DEE9EC"/>
<stop offset="0.72" stop-color="#D8E4E8"/>
<stop offset="0.76" stop-color="#CCD8DF"/>
<stop offset="0.8" stop-color="#C8D5DD"/>
<stop offset="0.83" stop-color="#CCD6DE"/>
<stop offset="0.85" stop-color="#D8DBE2"/>
<stop offset="0.88" stop-color="#EDE3E9"/>
<stop offset="0.9" stop-color="#FFEBEF"/>
</radialGradient>
<radialGradient id="paint3_radial_5203_1032" cx="0" cy="0" r="1" gradientUnits="userSpaceOnUse" gradientTransform="translate(8.401 14.1752) scale(1.52772 2.21306)">
<stop stop-color="#FF6600"/>
<stop offset="0.5" stop-color="#FF4500"/>
<stop offset="0.7" stop-color="#FC4301"/>
<stop offset="0.82" stop-color="#F43F07"/>
<stop offset="0.92" stop-color="#E53812"/>
<stop offset="1" stop-color="#D4301F"/>
</radialGradient>
<radialGradient id="paint4_radial_5203_1032" cx="0" cy="0" r="1" gradientUnits="userSpaceOnUse" gradientTransform="translate(15.8362 14.1752) rotate(180) scale(1.52772 2.21306)">
<stop stop-color="#FF6600"/>
<stop offset="0.5" stop-color="#FF4500"/>
<stop offset="0.7" stop-color="#FC4301"/>
<stop offset="0.82" stop-color="#F43F07"/>
<stop offset="0.92" stop-color="#E53812"/>
<stop offset="1" stop-color="#D4301F"/>
</radialGradient>
<radialGradient id="paint5_radial_5203_1032" cx="0" cy="0" r="1" gradientUnits="userSpaceOnUse" gradientTransform="translate(12.0986 18.6282) scale(5.03333 3.322)">
<stop stop-color="#172E35"/>
<stop offset="0.29" stop-color="#0E1C21"/>
<stop offset="0.73" stop-color="#030708"/>
<stop offset="1"/>
</radialGradient>
<radialGradient id="paint6_radial_5203_1032" cx="0" cy="0" r="1" gradientUnits="userSpaceOnUse" gradientTransform="translate(16.5377 3.65381) scale(4.41889 4.33051)">
<stop stop-color="#FEFFFF"/>
<stop offset="0.4" stop-color="#FEFFFF"/>
<stop offset="0.51" stop-color="#F9FCFC"/>
<stop offset="0.62" stop-color="#EDF3F5"/>
<stop offset="0.7" stop-color="#DEE9EC"/>
<stop offset="0.72" stop-color="#D8E4E8"/>
<stop offset="0.76" stop-color="#CCD8DF"/>
<stop offset="0.8" stop-color="#C8D5DD"/>
<stop offset="0.83" stop-color="#CCD6DE"/>
<stop offset="0.85" stop-color="#D8DBE2"/>
<stop offset="0.88" stop-color="#EDE3E9"/>
<stop offset="0.9" stop-color="#FFEBEF"/>
</radialGradient>
<radialGradient id="paint7_radial_5203_1032" cx="0" cy="0" r="1" gradientUnits="userSpaceOnUse" gradientTransform="translate(14.6965 8.12644) scale(3.62222)">
<stop offset="0.48" stop-color="#7A9299"/>
<stop offset="0.67" stop-color="#172E35"/>
<stop offset="0.75"/>
<stop offset="0.82" stop-color="#172E35"/>
</radialGradient>
</defs>
</svg>
