<svg width="240" height="80" viewBox="0 0 240 80" fill="none" xmlns="http://www.w3.org/2000/svg">
<path fill-rule="evenodd" clip-rule="evenodd" d="M67.2389 19.1045C72.5669 19.1045 77.493 14.8278 78.2418 9.55225C78.9906 4.27668 75.2785 0 69.9505 0C64.6227 0 59.6963 4.27668 58.9475 9.55225C58.1987 14.8278 61.911 19.1045 67.2389 19.1045ZM206.317 80C194.328 80 185.977 70.3775 187.662 58.5073L195.458 3.58194C195.551 2.9225 196.167 2.38791 196.833 2.38791H211.304C211.97 2.38791 212.434 2.9225 212.34 3.58194L204.671 57.6119C204.297 60.2496 206.153 62.3879 208.817 62.3879C211.481 62.3879 213.944 60.2496 214.319 57.6119L221.988 3.58194C222.081 2.9225 222.697 2.38791 223.363 2.38791H238.436C239.102 2.38791 239.566 2.9225 239.472 3.58194L231.676 58.5073C229.992 70.3775 218.909 80 206.919 80H206.317ZM105.795 78.806C105.129 78.806 104.665 78.2716 104.758 77.612L105.131 74.9828C101.501 78.1918 96.8978 80 92.3605 80H89.9487C80.6249 80 74.1285 72.5158 75.4389 63.2837L78.9979 38.209C80.3083 28.9767 88.9292 21.4925 98.253 21.4925H100.665C105.202 21.4925 109.292 23.3009 112.011 26.5099L115.266 3.5821C115.359 2.92264 115.975 2.38807 116.641 2.38807H131.112C131.778 2.38807 132.242 2.92264 132.148 3.5821L121.641 77.612C121.547 78.2716 120.931 78.806 120.265 78.806H105.795ZM18.044 2.38821H1.72225C0.968435 2.38821 0.303297 3.06537 0.336173 3.79934L3.6522 77.8292C3.67756 78.3953 4.11787 78.8062 4.69931 78.8062H27.8157C28.3971 78.8062 28.954 78.3953 29.1401 77.8292L53.4713 3.79934C53.7125 3.06537 53.2394 2.38821 52.4857 2.38821H36.164C35.5666 2.38821 34.9978 2.82132 34.8267 3.40642L19.1937 58.1196L19.0922 3.40642C19.0873 2.82132 18.6414 2.38821 18.044 2.38821ZM178.508 78.8062L162.186 78.8064C161.588 78.8064 161.143 78.3731 161.138 77.7882L161.045 66.8659H148.595L145.403 77.7884C145.232 78.3735 144.663 78.8066 144.066 78.8066L127.744 78.8064C126.99 78.8064 126.517 78.1292 126.759 77.3952L151.09 3.36522C151.276 2.7991 151.833 2.38829 152.414 2.38829H175.53C176.112 2.38829 176.552 2.7991 176.577 3.36522L179.894 77.3952C179.927 78.1292 179.261 78.8062 178.508 78.8062ZM51.5297 78.806C50.8638 78.806 50.3997 78.2716 50.4933 77.612L58.1197 23.8807C58.2133 23.2211 58.8292 22.6865 59.4951 22.6865H73.9658C74.6317 22.6865 75.0958 23.2211 75.0022 23.8807L67.3758 77.612C67.2821 78.2716 66.6663 78.806 66.0004 78.806H51.5297ZM161.035 23.0754L160.904 50.1495H153.481L161.035 23.0754ZM110.409 51.7587L93.2073 61.5448C92.3336 62.0418 91.3728 61.4699 91.5059 60.5322L94.2839 40.9602C94.417 40.0224 95.5401 39.4505 96.2727 39.9477L110.697 49.7336C111.386 50.2013 111.231 51.291 110.409 51.7587Z" fill="white"/>
</svg>
