<svg width="21" height="20" viewBox="0 0 21 20" fill="none" xmlns="http://www.w3.org/2000/svg">
<path d="M10.5 7.91641C10.0879 7.91656 9.68517 8.03889 9.34263 8.26793C9.00009 8.49698 8.73315 8.82244 8.57557 9.20318C8.41798 9.58393 8.37683 10.0028 8.45732 10.407C8.5378 10.8111 8.73631 11.1823 9.02773 11.4736C9.31916 11.7649 9.69042 11.9633 10.0946 12.0436C10.4987 12.1239 10.9176 12.0826 11.2983 11.9249C11.679 11.7672 12.0044 11.5001 12.2333 11.1575C12.4622 10.8149 12.5844 10.4121 12.5844 10C12.584 9.44739 12.3642 8.91754 11.9734 8.52686C11.5825 8.13618 11.0526 7.91661 10.5 7.91641ZM15.3715 6.31484C15.2654 6.04603 15.1052 5.80188 14.9009 5.59754C14.6966 5.3932 14.4524 5.23302 14.1836 5.12695C13.3633 4.80312 11.4102 4.87578 10.5 4.87578C9.58984 4.87578 7.63867 4.80039 6.81602 5.12695C6.5472 5.23302 6.30305 5.3932 6.09871 5.59754C5.89437 5.80188 5.7342 6.04603 5.62812 6.31484C5.30469 7.13516 5.37695 9.09023 5.37695 9.99961C5.37695 10.909 5.30469 12.8617 5.62969 13.6848C5.73576 13.9536 5.89593 14.1977 6.10028 14.4021C6.30462 14.6064 6.54877 14.7666 6.81758 14.8727C7.63789 15.1965 9.59102 15.1238 10.5016 15.1238C11.4121 15.1238 13.3625 15.1992 14.1852 14.8727C14.454 14.7666 14.6981 14.6064 14.9025 14.4021C15.1068 14.1977 15.267 13.9536 15.373 13.6848C15.6992 12.8645 15.6242 10.9094 15.6242 10C15.6242 9.09062 15.6992 7.13828 15.373 6.31523L15.3715 6.31484ZM10.5 13.2031C9.86648 13.2031 9.24719 13.0153 8.72044 12.6633C8.19369 12.3113 7.78314 11.8111 7.5407 11.2258C7.29826 10.6405 7.23483 9.99645 7.35842 9.3751C7.48202 8.75376 7.78708 8.18301 8.23505 7.73505C8.68301 7.28708 9.25376 6.98202 9.8751 6.85842C10.4964 6.73483 11.1405 6.79826 11.7258 7.0407C12.3111 7.28314 12.8113 7.69369 13.1633 8.22044C13.5153 8.74719 13.7031 9.36648 13.7031 10C13.7036 10.4208 13.6211 10.8375 13.4603 11.2264C13.2996 11.6152 13.0636 11.9686 12.7661 12.2661C12.4686 12.5636 12.1152 12.7996 11.7264 12.9603C11.3375 13.1211 10.9208 13.2036 10.5 13.2031ZM13.8352 7.41016C13.6873 7.41023 13.5427 7.36645 13.4197 7.28434C13.2967 7.20224 13.2008 7.0855 13.1441 6.94889C13.0875 6.81228 13.0726 6.66194 13.1014 6.51688C13.1302 6.37182 13.2014 6.23857 13.306 6.13397C13.4105 6.02936 13.5437 5.95812 13.6888 5.92924C13.8338 5.90036 13.9842 5.91514 14.1208 5.97172C14.2574 6.0283 14.3742 6.12412 14.4564 6.24708C14.5386 6.37004 14.5824 6.51461 14.5824 6.6625C14.5828 6.76071 14.5639 6.85803 14.5266 6.94889C14.4893 7.03974 14.4344 7.12234 14.3651 7.19195C14.2959 7.26156 14.2135 7.3168 14.1228 7.35452C14.0322 7.39223 13.9349 7.41167 13.8367 7.41172L13.8352 7.41016ZM17.375 1.25H3.625C3.12772 1.25 2.65081 1.44754 2.29917 1.79917C1.94754 2.15081 1.75 2.62772 1.75 3.125L1.75 16.875C1.75 17.3723 1.94754 17.8492 2.29917 18.2008C2.65081 18.5525 3.12772 18.75 3.625 18.75H17.375C17.8723 18.75 18.3492 18.5525 18.7008 18.2008C19.0525 17.8492 19.25 17.3723 19.25 16.875V3.125C19.25 2.62772 19.0525 2.15081 18.7008 1.79917C18.3492 1.44754 17.8723 1.25 17.375 1.25ZM16.7063 12.5781C16.6559 13.5793 16.4273 14.4664 15.6965 15.1953C14.9656 15.9242 14.0793 16.1574 13.0793 16.2051C12.0477 16.2633 8.95469 16.2633 7.92305 16.2051C6.92188 16.1547 6.03789 15.9258 5.30586 15.1953C4.57383 14.4648 4.34375 13.5773 4.29609 12.5781C4.23789 11.5461 4.23789 8.45273 4.29609 7.42188C4.34648 6.4207 4.57227 5.53359 5.30586 4.80469C6.03945 4.07578 6.92578 3.84531 7.92305 3.79766C8.95469 3.73945 12.0477 3.73945 13.0793 3.79766C14.0805 3.84805 14.9672 4.07695 15.6965 4.80742C16.4258 5.53789 16.6586 6.42539 16.7063 7.42656C16.7645 8.45469 16.7645 11.5453 16.7063 12.5781Z" fill="white"/>
</svg>
