<svg width="71" height="24" viewBox="0 0 71 24" fill="none" xmlns="http://www.w3.org/2000/svg">
<rect x="-0.00341797" y="0.00683594" width="70.3333" height="24" rx="12" fill="#E5EBEE"/>
<path d="M18.0381 11.292H20.0631V12.042H18.0381V14.067H17.2881V12.042H15.2631V11.292H17.2881V9.26699H18.0381V11.292ZM23.6631 11.667C23.6631 12.8537 23.3112 14.0137 22.6519 15.0004C21.9926 15.9871 21.0555 16.7561 19.9592 17.2103C18.8628 17.6644 17.6564 17.7832 16.4925 17.5517C15.3287 17.3202 14.2596 16.7487 13.4204 15.9096C12.5813 15.0705 12.0099 14.0014 11.7784 12.8375C11.5469 11.6736 11.6657 10.4672 12.1198 9.37089C12.5739 8.27454 13.343 7.33746 14.3297 6.67817C15.3164 6.01889 16.4764 5.66699 17.6631 5.66699C19.2539 5.66874 20.779 6.30144 21.9038 7.42628C23.0286 8.55112 23.6613 10.0762 23.6631 11.667ZM22.9131 11.667C22.9131 10.6286 22.6052 9.61361 22.0283 8.75025C21.4514 7.88689 20.6315 7.21398 19.6722 6.81662C18.7129 6.41926 17.6573 6.3153 16.6389 6.51787C15.6205 6.72044 14.685 7.22046 13.9508 7.95468C13.2166 8.68891 12.7165 9.62437 12.514 10.6428C12.3114 11.6612 12.4154 12.7168 12.8127 13.6761C13.2101 14.6354 13.883 15.4553 14.7463 16.0322C15.6097 16.6091 16.6247 16.917 17.6631 16.917C19.055 16.9154 20.3894 16.3618 21.3736 15.3775C22.3579 14.3933 22.9115 13.0589 22.9131 11.667Z" fill="black"/>
<path d="M37.2903 7.51887V14.2782C37.2903 15.0307 37.0584 15.6345 36.5947 16.0895C36.1309 16.5357 35.5184 16.7589 34.7572 16.7589C33.9872 16.7589 33.3703 16.5314 32.9065 16.0764C32.4428 15.6126 32.2109 14.9826 32.2109 14.1864H33.4053C33.414 14.6326 33.5278 14.9957 33.7465 15.2757C33.974 15.5557 34.3109 15.6957 34.7572 15.6957C35.2034 15.6957 35.5359 15.5645 35.7547 15.302C35.9734 15.0307 36.0828 14.6895 36.0828 14.2782V7.51887H37.2903ZM42.7801 16.7851C42.1064 16.7851 41.4939 16.632 40.9426 16.3257C40.4001 16.0195 39.9714 15.5864 39.6564 15.0264C39.3501 14.4576 39.197 13.8014 39.197 13.0576C39.197 12.3226 39.3545 11.6751 39.6695 11.1151C39.9933 10.5464 40.4308 10.1132 40.982 9.81574C41.5333 9.50949 42.1501 9.35637 42.8326 9.35637C43.5151 9.35637 44.132 9.50949 44.6833 9.81574C45.2345 10.1132 45.6676 10.542 45.9826 11.102C46.3064 11.662 46.4683 12.3139 46.4683 13.0576C46.4683 13.8014 46.302 14.4576 45.9695 15.0264C45.6458 15.5864 45.2039 16.0195 44.6439 16.3257C44.0839 16.632 43.4626 16.7851 42.7801 16.7851ZM42.7801 15.7351C43.2089 15.7351 43.6114 15.6345 43.9876 15.4332C44.3639 15.232 44.6658 14.9301 44.8933 14.5276C45.1295 14.1251 45.2476 13.6351 45.2476 13.0576C45.2476 12.4801 45.1339 11.9901 44.9064 11.5876C44.6789 11.1851 44.3814 10.8876 44.0139 10.6951C43.6464 10.4939 43.2483 10.3932 42.8195 10.3932C42.382 10.3932 41.9795 10.4939 41.612 10.6951C41.2533 10.8876 40.9645 11.1851 40.7458 11.5876C40.527 11.9901 40.4176 12.4801 40.4176 13.0576C40.4176 13.6439 40.5226 14.1382 40.7326 14.5407C40.9514 14.9432 41.2401 15.2451 41.5989 15.4464C41.9576 15.6389 42.3514 15.7351 42.7801 15.7351ZM48.6555 8.30637C48.428 8.30637 48.2355 8.22762 48.078 8.07012C47.9205 7.91262 47.8418 7.72012 47.8418 7.49262C47.8418 7.26512 47.9205 7.07262 48.078 6.91512C48.2355 6.75762 48.428 6.67887 48.6555 6.67887C48.8743 6.67887 49.058 6.75762 49.2068 6.91512C49.3643 7.07262 49.443 7.26512 49.443 7.49262C49.443 7.72012 49.3643 7.91262 49.2068 8.07012C49.058 8.22762 48.8743 8.30637 48.6555 8.30637ZM49.233 9.47449V16.667H48.0386V9.47449H49.233ZM54.773 9.34324C55.648 9.34324 56.3567 9.61012 56.8992 10.1439C57.4417 10.6689 57.713 11.4301 57.713 12.4276V16.667H56.5317V12.5982C56.5317 11.8807 56.3524 11.3339 55.9936 10.9576C55.6349 10.5726 55.1449 10.3801 54.5236 10.3801C53.8936 10.3801 53.3905 10.577 53.0142 10.9707C52.6467 11.3645 52.463 11.9376 52.463 12.6901V16.667H51.2686V9.47449H52.463V10.4982C52.6992 10.1307 53.0186 9.84637 53.4211 9.64512C53.8324 9.44387 54.283 9.34324 54.773 9.34324Z" fill="black"/>
</svg>
