<svg width="21" height="20" viewBox="0 0 21 20" fill="none" xmlns="http://www.w3.org/2000/svg">
<path d="M18 1.25H2.99609C2.30859 1.25 1.75 1.81641 1.75 2.51172V17.4883C1.75 18.1836 2.30859 18.75 2.99609 18.75H18C18.6875 18.75 19.25 18.1836 19.25 17.4883V2.51172C19.25 1.81641 18.6875 1.25 18 1.25ZM7.03906 16.25H4.44531V7.89844H7.04297V16.25H7.03906ZM5.74219 6.75781C4.91016 6.75781 4.23828 6.08203 4.23828 5.25391C4.23828 4.42578 4.91016 3.75 5.74219 3.75C6.57031 3.75 7.24609 4.42578 7.24609 5.25391C7.24609 6.08594 6.57422 6.75781 5.74219 6.75781ZM16.7617 16.25H14.168V12.1875C14.168 11.2188 14.1484 9.97266 12.8203 9.97266C11.4688 9.97266 11.2617 11.0273 11.2617 12.1172V16.25H8.66797V7.89844H11.1562V9.03906H11.1914C11.5391 8.38281 12.3867 7.69141 13.6484 7.69141C16.2734 7.69141 16.7617 9.42188 16.7617 11.6719V16.25Z" fill="white"/>
</svg>
