<svg width="21" height="20" viewBox="0 0 21 20" fill="none" xmlns="http://www.w3.org/2000/svg">
<path d="M19.5843 5.41825C19.3662 4.59707 18.7237 3.95033 17.9078 3.73085C16.429 3.33203 10.4991 3.33203 10.4991 3.33203C10.4991 3.33203 4.56921 3.33203 3.09036 3.73085C2.27449 3.95036 1.63192 4.59707 1.41383 5.41825C1.01758 6.90668 1.01758 10.0122 1.01758 10.0122C1.01758 10.0122 1.01758 13.1177 1.41383 14.6061C1.63192 15.4273 2.27449 16.0471 3.09036 16.2665C4.56921 16.6654 10.4991 16.6654 10.4991 16.6654C10.4991 16.6654 16.4289 16.6654 17.9078 16.2665C18.7237 16.0471 19.3662 15.4273 19.5843 14.6061C19.9806 13.1177 19.9806 10.0122 19.9806 10.0122C19.9806 10.0122 19.9806 6.90668 19.5843 5.41825ZM8.55966 12.8317V7.19262L13.5159 10.0122L8.55966 12.8317Z" fill="white"/>
</svg>
