<svg width="115" height="39" viewBox="0 0 115 39" fill="none" xmlns="http://www.w3.org/2000/svg">
<path fill-rule="evenodd" clip-rule="evenodd" d="M32.297 9.47493C34.8533 9.47493 37.2167 7.42308 37.576 4.892C37.9352 2.36092 36.1543 0.309082 33.598 0.309082C31.0418 0.309082 28.6783 2.36092 28.3191 4.892C27.9598 7.42308 29.7409 9.47493 32.297 9.47493ZM99.0233 38.691C93.2712 38.691 89.2644 34.0744 90.0728 28.3794L93.813 2.0276C93.858 1.71122 94.1533 1.45474 94.4728 1.45474H101.416C101.735 1.45474 101.958 1.71122 101.913 2.0276L98.2336 27.9498C98.054 29.2153 98.9446 30.2412 100.223 30.2412C101.501 30.2412 102.683 29.2153 102.862 27.9498L106.541 2.0276C106.586 1.71122 106.882 1.45474 107.201 1.45474H114.433C114.752 1.45474 114.975 1.71122 114.93 2.0276L111.19 28.3794C110.382 34.0744 105.064 38.691 99.3121 38.691H99.0233ZM50.7951 38.1182C50.4756 38.1182 50.2529 37.8618 50.2979 37.5453L50.4769 36.2839C48.7349 37.8235 46.5266 38.691 44.3497 38.691H43.1926C38.7193 38.691 35.6025 35.1003 36.2312 30.671L37.9387 18.6408C38.5674 14.2114 42.7035 10.6206 47.1768 10.6206H48.3339C50.5108 10.6206 52.4728 11.4883 53.7778 13.0279L55.3391 2.02768C55.384 1.71129 55.6795 1.45482 55.999 1.45482H62.9417C63.2612 1.45482 63.4838 1.71129 63.4389 2.02768L58.3976 37.5453C58.3527 37.8618 58.0573 38.1182 57.7378 38.1182H50.7951ZM8.69459 1.45488H0.863848C0.502186 1.45488 0.18307 1.77977 0.198843 2.13191L1.78979 37.6495C1.80195 37.9211 2.0132 38.1183 2.29216 38.1183H13.3828C13.6617 38.1183 13.9289 37.9211 14.0182 37.6495L25.6917 2.13191C25.8074 1.77977 25.5805 1.45488 25.2188 1.45488H17.3881C17.1015 1.45488 16.8286 1.66268 16.7465 1.9434L9.24619 28.1934L9.1975 1.9434C9.19513 1.66268 8.9812 1.45488 8.69459 1.45488ZM85.6809 38.1183L77.8501 38.1184C77.5635 38.1184 77.3496 37.9105 77.3472 37.6299L77.303 32.3896H71.3298L69.7982 37.63C69.7161 37.9107 69.4432 38.1184 69.1566 38.1184L61.3259 38.1184C60.9642 38.1184 60.7373 37.7935 60.853 37.4413L72.5265 1.92363C72.6157 1.65202 72.883 1.45492 73.1619 1.45492H84.2524C84.5314 1.45492 84.7426 1.65202 84.7547 1.92363L86.3459 37.4413C86.3617 37.7935 86.0426 38.1183 85.6809 38.1183ZM24.7602 38.1182C24.4407 38.1182 24.218 37.8618 24.2629 37.5453L27.9219 11.7664C27.9668 11.45 28.2623 11.1935 28.5818 11.1935H35.5244C35.8439 11.1935 36.0666 11.45 36.0217 11.7664L32.3627 37.5453C32.3178 37.8618 32.0223 38.1182 31.7028 38.1182H24.7602ZM77.298 11.3801L77.2353 24.3695H73.6738L77.298 11.3801ZM53.0091 25.1416L44.756 29.8367C44.3368 30.0751 43.8759 29.8008 43.9397 29.3508L45.2725 19.9607C45.3364 19.5108 45.8752 19.2364 46.2267 19.475L53.147 24.17C53.4777 24.3944 53.4035 24.9172 53.0091 25.1416Z" fill="url(#paint0_linear_5170_3598)"/>
<defs>
<linearGradient id="paint0_linear_5170_3598" x1="112.45" y1="19.5" x2="-0.0105154" y2="3.53778" gradientUnits="userSpaceOnUse">
<stop stop-color="#6A3BFF"/>
<stop offset="1" stop-color="#3459FF"/>
</linearGradient>
</defs>
</svg>
