<svg width="337" height="465" viewBox="0 0 337 465" fill="none" xmlns="http://www.w3.org/2000/svg">
<mask id="mask0_5170_3572" style="mask-type:luminance" maskUnits="userSpaceOnUse" x="0" y="0" width="346" height="465">
<path d="M0 0H346V465H0V0Z" fill="white"/>
</mask>
<g mask="url(#mask0_5170_3572)">
<mask id="mask1_5170_3572" style="mask-type:luminance" maskUnits="userSpaceOnUse" x="-150" y="-337" width="690" height="785">
<path d="M-149.37 126.827L408.31 447.187L539.562 -15.748L-18.1191 -336.11L-149.37 126.827Z" fill="white"/>
</mask>
<g mask="url(#mask1_5170_3572)">
<g opacity="0.6">
<path style="mix-blend-mode:soft-light" opacity="0.5" d="M307.08 389.034C307.08 389.034 301.464 122.592 -38.4531 82.156L-17.0371 -102.053L424.45 44.034L381.198 416.046L307.08 389.034Z" fill="url(#paint0_linear_5170_3572)"/>
<path d="M307.515 350.424C307.515 350.424 341.207 93.276 5.30469 -24.39L54.0447 -196.304L476.502 46.376L378.072 393.552L307.515 350.424Z" fill="url(#paint1_linear_5170_3572)"/>
<path d="M368.691 298.508C368.691 298.508 363.075 32.066 23.1582 -8.371L44.5742 -192.579L486.061 -46.492L442.806 325.512L368.687 298.499L368.691 298.508Z" fill="url(#paint2_linear_5170_3572)"/>
<path d="M368.691 298.508C368.691 298.508 363.075 32.066 23.1592 -8.371L44.5752 -192.579L486.06 -46.492L442.805 325.512L368.687 298.499L368.69 298.508H368.691Z" fill="url(#paint3_linear_5170_3572)"/>
<path d="M-55.626 -203.822C-55.626 -203.822 -19.276 -103.47 148.855 -54.84C277.199 -17.713 336.341 37.44 399.991 166.132L462.668 105.79C462.668 105.79 429.979 -1.534 291.9 -75.616C153.823 -149.703 75.58 -92.784 -24.273 -242.637L-55.626 -203.822Z" fill="url(#paint4_linear_5170_3572)"/>
<path d="M-50.3867 -161.693C-50.3867 -161.693 -14.0367 -61.341 154.093 -12.711C282.438 24.416 341.579 79.569 405.23 208.26L467.907 147.917C467.907 147.917 433.739 51.727 295.662 -22.36C157.584 -96.447 69.2603 -30.898 -30.5937 -180.752L-50.3867 -161.693Z" fill="url(#paint5_linear_5170_3572)"/>
<path d="M-72.7588 -129.253C-72.7588 -129.253 -30.3997 -31.92 138.656 -0.0429993C267.708 24.294 329.635 73.81 400.766 196.901L458.713 129.785C458.713 129.785 418.777 36.42 277.729 -24.133C136.68 -84.687 53.7642 -9.72301 -54.4638 -150.444L-72.7598 -129.247L-72.7588 -129.253Z" fill="url(#paint6_linear_5170_3572)"/>
<path d="M-64.9033 -114.388C-64.9033 -114.388 -18.7293 -19.394 150.338 1.306C279.396 17.11 342.94 62.727 418.762 181.685L473.379 110.332C473.379 110.332 429.775 19.164 287.272 -32.243C144.769 -83.65 65.7147 -2.735 -47.6553 -136.92L-64.9033 -114.388Z" fill="url(#paint7_linear_5170_3572)"/>
<path d="M-56.7676 -122.339C-56.7676 -122.339 -20.7096 -21.862 147.357 27.549C275.648 65.269 334.651 120.679 397.939 249.611L460.83 189.592C460.83 189.592 426.939 93.287 289.022 18.578C151.105 -56.131 60.3774 17.3 -39.0676 -132.96L-56.7626 -122.335L-56.7676 -122.339Z" fill="url(#paint8_linear_5170_3572)"/>
<path d="M14.0361 -39.684C14.0361 -39.684 77.9401 3.27 187.772 -10.514C271.611 -21.034 327.253 -6.426 418.133 44.741L423.999 -0.516998C423.999 -0.516998 363.099 -41.842 257.634 -47.983C152.17 -54.123 135.197 -0.309998 15.8931 -53.974L14.0411 -39.681L14.0361 -39.684Z" fill="url(#paint9_linear_5170_3572)"/>
<path d="M21.0391 -4.96701C21.0391 -4.96701 76.2531 48.17 183.545 55.283C265.448 60.713 316.748 85.068 396.671 151.101L408.698 108.68C408.698 108.68 356.134 57.663 255.85 32.21C155.567 6.75699 131.673 55.342 24.8371 -18.363L21.0391 -4.96701Z" fill="url(#paint10_linear_5170_3572)"/>
<path d="M27.957 -16.227C27.957 -16.227 84.447 38.039 190.852 34.906C272.078 32.51 324.232 52.104 407.208 110.901L416.497 67.051C416.497 67.051 361.465 20.743 260.865 4.74699C160.264 -11.25 139.628 39.946 29.607 -23.99L27.961 -16.225L27.957 -16.228V-16.227Z" fill="url(#paint11_linear_5170_3572)"/>
<path d="M407.208 110.901C324.232 52.104 272.078 32.51 190.852 34.906C84.447 38.04 27.957 -16.227 27.957 -16.227L27.961 -16.224L29.607 -23.989" stroke="white" stroke-opacity="0.5"/>
<path d="M30.6729 -31.321C30.6729 -31.321 91.7309 13.652 197.15 3.338C277.623 -4.534 330.2 11.649 415.022 65.165L422.359 20.46C422.359 20.46 365.785 -22.385 265.303 -31.693C164.821 -41.001 145.856 16.055 33.9759 -40.802L30.6699 -31.33L30.6729 -31.321Z" fill="url(#paint12_linear_5170_3572)"/>
<path d="M24.2706 -21.245C24.2706 -21.245 86.1776 26.825 197.456 22.797C282.401 19.727 337.572 39.036 426.167 97.588L434.584 53.341C434.584 53.341 375.605 7.14 269.833 -8.153C164.06 -23.446 143.985 28.286 26.9266 -35.22L24.2666 -21.248L24.2706 -21.245Z" fill="url(#paint13_linear_5170_3572)"/>
<path d="M27.5557 -23.915C27.5557 -23.915 90.5157 21.573 201.126 12.58C285.558 5.71 341.006 22.64 430.816 77.464L437.938 32.674C437.938 32.674 377.947 -11.07 272.267 -21.716C166.587 -32.36 148.081 20.469 29.8087 -38.067L27.5587 -23.925L27.5557 -23.915Z" fill="url(#paint14_linear_5170_3572)"/>
</g>
</g>
</g>
<defs>
<linearGradient id="paint0_linear_5170_3572" x1="418.569" y1="246.87" x2="40.4489" y2="139.668" gradientUnits="userSpaceOnUse">
<stop stop-color="white"/>
<stop offset="0.09" stop-color="#FEFDFF" stop-opacity="0.98"/>
<stop offset="0.22" stop-color="#F5F7FF" stop-opacity="0.91"/>
<stop offset="0.36" stop-color="#F0F3FF" stop-opacity="0.8"/>
<stop offset="0.52" stop-color="#E1E6FF" stop-opacity="0.64"/>
<stop offset="0.69" stop-color="#D2DAFF" stop-opacity="0.44"/>
<stop offset="0.87" stop-color="#BDC9FE" stop-opacity="0.2"/>
<stop offset="1" stop-color="#AEBDFE" stop-opacity="0"/>
</linearGradient>
<linearGradient id="paint1_linear_5170_3572" x1="166.007" y1="275.165" x2="261.475" y2="108.974" gradientUnits="userSpaceOnUse">
<stop stop-color="#C7D2FF" stop-opacity="0"/>
<stop offset="1" stop-color="#5D7BFE"/>
</linearGradient>
<linearGradient id="paint2_linear_5170_3572" x1="221.685" y1="255.611" x2="284.742" y2="64.958" gradientUnits="userSpaceOnUse">
<stop stop-color="#C7D2FF"/>
<stop offset="0.09" stop-color="#C7D2FF" stop-opacity="0.97"/>
<stop offset="0.22" stop-color="#BDC9FE" stop-opacity="0.88"/>
<stop offset="0.39" stop-color="#AEBDFE" stop-opacity="0.73"/>
<stop offset="0.59" stop-color="#95A8FE" stop-opacity="0.52"/>
<stop offset="0.8" stop-color="#7C94FE" stop-opacity="0.26"/>
<stop offset="1" stop-color="#5D7BFE" stop-opacity="0"/>
</linearGradient>
<linearGradient id="paint3_linear_5170_3572" x1="221.686" y1="255.611" x2="284.743" y2="64.958" gradientUnits="userSpaceOnUse">
<stop stop-color="#C7D2FF"/>
<stop offset="0.09" stop-color="#C7D2FF" stop-opacity="0.97"/>
<stop offset="0.22" stop-color="#BDC9FE" stop-opacity="0.88"/>
<stop offset="0.39" stop-color="#AEBDFE" stop-opacity="0.73"/>
<stop offset="0.59" stop-color="#95A8FE" stop-opacity="0.52"/>
<stop offset="0.8" stop-color="#7C94FE" stop-opacity="0.26"/>
<stop offset="1" stop-color="#5D7BFE" stop-opacity="0"/>
</linearGradient>
<linearGradient id="paint4_linear_5170_3572" x1="41.717" y1="-129.613" x2="199.297" y2="-84.937" gradientUnits="userSpaceOnUse">
<stop stop-color="#AEBDFE"/>
<stop offset="0.51" stop-color="#5D7BFE"/>
<stop offset="1" stop-color="#1641FD"/>
</linearGradient>
<linearGradient id="paint5_linear_5170_3572" x1="-4.99272" y1="-159.815" x2="164.876" y2="-95.879" gradientUnits="userSpaceOnUse">
<stop stop-color="#AEBDFE"/>
<stop offset="0.51" stop-color="#5D7BFE"/>
<stop offset="1" stop-color="#1641FD"/>
</linearGradient>
<linearGradient id="paint6_linear_5170_3572" x1="-11.6738" y1="-117.069" x2="201.238" y2="-56.705" gradientUnits="userSpaceOnUse">
<stop stop-color="#AEBDFE"/>
<stop offset="0.51" stop-color="#5D7BFE"/>
<stop offset="1" stop-color="#1641FD"/>
</linearGradient>
<linearGradient id="paint7_linear_5170_3572" x1="-3.76732" y1="-106.231" x2="209.259" y2="-56.599" gradientUnits="userSpaceOnUse">
<stop stop-color="#AEBDFE"/>
<stop offset="0.51" stop-color="#5D7BFE"/>
<stop offset="1" stop-color="#1641FD"/>
</linearGradient>
<linearGradient id="paint8_linear_5170_3572" x1="171.081" y1="178.744" x2="248.305" y2="15.74" gradientUnits="userSpaceOnUse">
<stop stop-color="#AEBDFE"/>
<stop offset="0.51" stop-color="#5D7BFE"/>
<stop offset="1" stop-color="#3A5EFD"/>
</linearGradient>
<linearGradient id="paint9_linear_5170_3572" x1="47.1991" y1="-132.545" x2="373.897" y2="-21.37" gradientUnits="userSpaceOnUse">
<stop stop-color="#B8C5FE"/>
<stop offset="1" stop-color="#5D7BFE"/>
</linearGradient>
<linearGradient id="paint10_linear_5170_3572" x1="200.15" y1="103.771" x2="249.544" y2="17.787" gradientUnits="userSpaceOnUse">
<stop stop-color="#AEBDFE"/>
<stop offset="0.51" stop-color="#5D7BFE"/>
<stop offset="1" stop-color="#0228CF"/>
</linearGradient>
<linearGradient id="paint11_linear_5170_3572" x1="49.76" y1="22.592" x2="385.923" y2="15.973" gradientUnits="userSpaceOnUse">
<stop stop-color="#AEBDFE"/>
<stop offset="0.51" stop-color="#5D7BFE"/>
<stop offset="1" stop-color="#0228CF"/>
</linearGradient>
<linearGradient id="paint12_linear_5170_3572" x1="203.589" y1="84.84" x2="272.568" y2="-35.237" gradientUnits="userSpaceOnUse">
<stop stop-color="#4944F6"/>
<stop offset="0.51" stop-color="#5136D5"/>
<stop offset="1" stop-color="#3453FA"/>
</linearGradient>
<linearGradient id="paint13_linear_5170_3572" x1="14.7036" y1="-48.894" x2="336.459" y2="-20.87" gradientUnits="userSpaceOnUse">
<stop stop-color="#C7D2FF"/>
<stop offset="0.76" stop-color="#5D7BFE"/>
<stop offset="1" stop-color="#1C46FD"/>
</linearGradient>
<linearGradient id="paint14_linear_5170_3572" x1="212.078" y1="84.005" x2="254.693" y2="9.82001" gradientUnits="userSpaceOnUse">
<stop stop-color="#C7D2FF"/>
<stop offset="1" stop-color="#5D7BFE"/>
</linearGradient>
</defs>
</svg>
