<svg width="21" height="20" viewBox="0 0 21 20" fill="none" xmlns="http://www.w3.org/2000/svg">
<path d="M10.9434 0.016875C12.0341 0 13.1184 0.01 14.2016 0C14.2672 1.27562 14.7259 2.575 15.6597 3.47688C16.5916 4.40125 17.9097 4.82438 19.1922 4.9675V8.32312C17.9903 8.28375 16.7828 8.03375 15.6922 7.51625C15.2172 7.30125 14.7747 7.02437 14.3416 6.74125C14.3359 9.17625 14.3516 11.6081 14.3259 14.0331C14.2609 15.1981 13.8766 16.3575 13.1991 17.3175C12.1091 18.9156 10.2172 19.9575 8.27407 19.99C7.08219 20.0581 5.89157 19.7331 4.87594 19.1344C3.19282 18.1419 2.00844 16.325 1.83594 14.375C1.81594 13.9581 1.80907 13.5419 1.82594 13.135C1.97594 11.5494 2.76032 10.0325 3.97782 9.00062C5.35782 7.79875 7.29094 7.22625 9.10094 7.565C9.11782 8.79938 9.06844 10.0325 9.06844 11.2669C8.24157 10.9994 7.27532 11.0744 6.55282 11.5763C6.02532 11.9181 5.62469 12.4419 5.41594 13.0344C5.24344 13.4569 5.29282 13.9263 5.30282 14.375C5.50094 15.7425 6.81594 16.8919 8.21969 16.7675C9.15032 16.7575 10.0422 16.2175 10.5272 15.4269C10.6841 15.15 10.8597 14.8669 10.8691 14.5413C10.9509 13.0506 10.9184 11.5662 10.9284 10.0756C10.9353 6.71625 10.9184 3.36625 10.9441 0.0175L10.9434 0.016875Z" fill="white"/>
</svg>
