<svg width="70" height="71" viewBox="0 0 70 71" fill="none" xmlns="http://www.w3.org/2000/svg">
<mask id="mask0_5203_488" style="mask-type:alpha" maskUnits="userSpaceOnUse" x="0" y="0" width="71" height="71">
<g clip-path="url(#clip0_5203_488)">
<path d="M61.1068 38.0629C62.8101 38.0629 64.1868 39.4074 64.1693 41.067C64.1372 44.3337 64.0614 46.3695 63.8951 48.3645C63.5976 51.9287 62.988 54.9037 61.623 57.3741C61.0259 58.4604 60.271 59.4521 59.383 60.317C56.8222 62.8108 53.5672 63.9395 49.4372 64.4762C45.4064 65.007 40.0601 65.007 33.4684 65.007C26.8709 65.007 24.6222 65.007 20.5884 64.4762C16.4614 63.9395 13.2034 62.8108 10.6484 60.317C8.38219 58.1062 7.20677 55.3587 6.58844 51.9462C5.97594 48.5949 5.86219 44.4299 5.84177 39.2529C5.83788 37.9345 5.83594 36.5404 5.83594 35.0704V34.907C5.83594 28.4787 5.83594 24.9554 6.37844 21.0237C6.9326 16.9987 8.09052 13.8254 10.6484 11.3345C13.2034 8.84077 16.4614 7.71202 20.5884 7.17244C23.0326 6.8516 24.9489 6.72327 28.8572 6.6766C29.2546 6.66731 29.65 6.737 30.0203 6.88162C30.3906 7.02624 30.7285 7.24292 31.0144 7.5191C31.3004 7.79528 31.5287 8.12547 31.6861 8.49053C31.8435 8.85558 31.9268 9.24825 31.9314 9.64577C31.9314 11.2966 30.5634 12.4837 28.8689 12.4924C24.2459 12.4924 22.7205 12.6412 21.1922 12.7929C19.6639 12.9416 17.1614 13.1429 15.5339 14.7295C13.9064 16.3162 12.9759 18.0195 12.4859 21.5837C11.9843 25.2062 11.9784 29.3449 11.9784 35.9687L12.9818 34.9799C14.2359 33.9095 15.8634 33.3466 17.5289 33.3991C19.1865 33.4493 20.7656 34.1172 21.9564 35.2716L31.1439 47.2154C32.1081 48.1433 33.3621 48.7114 34.6956 48.8245C36.029 48.9376 37.3608 48.5888 38.4676 47.8366L39.3193 47.2533C40.9141 46.1612 42.8266 45.6299 44.7562 45.7429C46.6858 45.8559 48.5232 46.6067 49.9797 47.8774C51.4234 49.1433 56.2126 54.9737 56.2126 54.9737C57.0264 53.3054 57.5105 51.1179 57.7701 48.0262C57.9276 46.1391 57.9976 44.2462 58.0268 41.0437C58.0436 40.2407 58.3771 39.4768 58.9545 38.9185C59.5319 38.3602 60.3036 38.0527 61.1068 38.0629Z" fill="black"/>
<path fill-rule="evenodd" clip-rule="evenodd" d="M50.3529 34.3054C43.8429 34.3054 40.582 34.3054 38.5608 32.2812C36.5395 30.257 36.5366 27.002 36.5366 20.4891C36.5366 13.9762 36.5366 10.7183 38.5608 8.69702C40.585 6.67577 43.84 6.67285 50.3529 6.67285C56.8658 6.67285 60.1237 6.67285 62.145 8.69702C64.1691 10.7183 64.1691 13.9762 64.1691 20.4891C64.1691 27.002 64.1691 30.2599 62.145 32.2812C60.1237 34.3054 56.8658 34.3054 50.3529 34.3054ZM52.657 14.3495C52.657 13.7384 52.4143 13.1523 51.9822 12.7202C51.5501 12.2881 50.964 12.0454 50.3529 12.0454C49.7418 12.0454 49.1557 12.2881 48.7236 12.7202C48.2915 13.1523 48.0487 13.7384 48.0487 14.3495V18.1849H44.2133C43.6022 18.1849 43.0161 18.4277 42.584 18.8598C42.1519 19.2919 41.9091 19.878 41.9091 20.4891C41.9091 21.1002 42.1519 21.6863 42.584 22.1184C43.0161 22.5505 43.6022 22.7933 44.2133 22.7933H48.0516V26.6287C48.0729 27.2252 48.3248 27.7902 48.7543 28.2047C49.1838 28.6192 49.7574 28.8509 50.3543 28.8509C50.9512 28.8509 51.5249 28.6192 51.9544 28.2047C52.3839 27.7902 52.6358 27.2252 52.657 26.6287V22.7904H56.4954C56.8047 22.8014 57.113 22.75 57.402 22.6392C57.691 22.5284 57.9547 22.3606 58.1774 22.1457C58.4001 21.9307 58.5772 21.6732 58.6982 21.3883C58.8192 21.1034 58.8815 20.7971 58.8815 20.4876C58.8815 20.1782 58.8192 19.8718 58.6982 19.587C58.5772 19.3021 58.4001 19.0445 58.1774 18.8296C57.9547 18.6147 57.691 18.4469 57.402 18.3361C57.113 18.2253 56.8047 18.1739 56.4954 18.1849H52.657V14.3495Z" fill="black"/>
</g>
</mask>
<g mask="url(#mask0_5203_488)">
<rect x="0.00244141" y="0.839844" width="70" height="70" fill="white"/>
</g>
<defs>
<clipPath id="clip0_5203_488">
<rect width="70" height="70" fill="white" transform="translate(0.00244141 0.839844)"/>
</clipPath>
</defs>
</svg>
