<svg width="17" height="17" viewBox="0 0 17 17" fill="none" xmlns="http://www.w3.org/2000/svg">
<path d="M8.66664 15.4571C8.60904 15.4571 8.55064 15.4571 8.49224 15.4523C7.65627 15.3875 6.87687 15.005 6.31416 14.3833C5.75146 13.7617 5.44818 12.9482 5.46664 12.1099V9.05711H2.95624C2.67884 9.05707 2.40769 8.97466 2.17718 8.82033C1.94666 8.66601 1.76716 8.44671 1.66142 8.19025C1.55568 7.93379 1.52847 7.6517 1.58323 7.37976C1.638 7.10781 1.77228 6.85825 1.96904 6.66271L8.19464 0.481109C8.31999 0.356242 8.48971 0.286133 8.66664 0.286133C8.84357 0.286133 9.0133 0.356242 9.13864 0.481109L15.3642 6.66271C15.561 6.8582 15.6952 7.10769 15.75 7.37956C15.8048 7.65143 15.7777 7.93345 15.672 8.18988C15.5664 8.44631 15.387 8.66561 15.1566 8.82C14.9262 8.97438 14.6552 9.05691 14.3778 9.05711H11.8666V12.1627C11.8802 12.9113 11.6393 13.6424 11.1834 14.2363C10.8841 14.6175 10.502 14.9256 10.0659 15.1371C9.62982 15.3486 9.15131 15.458 8.66664 15.4571Z" fill="#FF4500"/>
</svg>
