<svg width="22" height="20" viewBox="0 0 22 20" fill="none" xmlns="http://www.w3.org/2000/svg">
<path d="M20.1243 9.99721C20.109 9.44664 19.9411 8.91056 19.6385 8.44949C19.3368 7.98926 18.9124 7.62108 18.4129 7.38755C18.603 6.87022 18.6431 6.31028 18.5323 5.77079C18.4206 5.23045 18.1598 4.73272 17.7806 4.33301C17.38 3.95375 16.8831 3.6938 16.3428 3.5813C15.8033 3.47051 15.2433 3.51056 14.726 3.70062C14.4933 3.20034 14.126 2.77505 13.6649 2.47335C13.2039 2.17164 12.6678 2.00289 12.1164 1.98926C11.5658 2.00375 11.0314 2.17079 10.5712 2.47335C10.111 2.77591 9.74533 3.20119 9.51436 3.70062C8.99618 3.51056 8.43454 3.4688 7.89334 3.5813C7.35215 3.6921 6.85357 3.95289 6.453 4.33301C6.07374 4.73358 5.81465 5.23216 5.70471 5.77164C5.59391 6.31113 5.63652 6.87108 5.82743 7.38755C5.32715 7.62108 4.90101 7.98841 4.5976 8.44863C4.29419 8.90886 4.12459 9.44579 4.1084 9.99721C4.12544 10.5486 4.29419 11.0847 4.5976 11.5458C4.90101 12.006 5.32715 12.3742 5.82743 12.6069C5.63652 13.1233 5.59391 13.6833 5.70471 14.2228C5.8155 14.7631 6.07374 15.2608 6.45215 15.6614C6.85272 16.039 7.35044 16.2981 7.88993 16.4097C8.42942 16.5222 8.98936 16.4813 9.50669 16.2938C9.74022 16.7932 10.1075 17.2177 10.5686 17.5202C11.0289 17.8219 11.5658 17.9898 12.1164 18.0052C12.6678 17.9915 13.2039 17.8236 13.6649 17.5219C14.126 17.2202 14.4933 16.7941 14.726 16.2947C15.2408 16.4983 15.805 16.5469 16.3479 16.4344C16.8899 16.3219 17.3877 16.0535 17.7797 15.6614C18.1718 15.2694 18.4411 14.7716 18.5536 14.2287C18.6661 13.6858 18.6175 13.1216 18.4129 12.6069C18.9124 12.3733 19.3368 12.006 19.6394 11.5449C19.9411 11.0847 20.109 10.5478 20.1243 9.99721ZM10.976 13.2785L8.05357 10.3569L9.15556 9.24721L10.9215 11.0131L14.6715 6.92733L15.8195 7.98926L10.976 13.2785Z" fill="#1D9BF0"/>
</svg>
